<svg xmlns="http://www.w3.org/2000/svg" viewBox="0 0 100 100" width="100" height="100">
  <defs>
    <linearGradient id="grad" x1="0%" y1="0%" x2="100%" y2="100%">
      <stop offset="0%" stop-color="#0284c7" />
      <stop offset="100%" stop-color="#0369a1" />
    </linearGradient>
    <filter id="shadow" x="-10%" y="-10%" width="120%" height="120%">
      <feDropShadow dx="0" dy="2" stdDeviation="3" flood-color="#0284c7" flood-opacity="0.3" />
    </filter>
  </defs>
  <!-- Fondo distintivo de la clínica -->
  <rect x="5" y="5" width="90" height="90" rx="24" fill="url(#grad)" filter="url(#shadow)" />
  <!-- Cruz Médica estilizada -->
  <path d="M 40 22 C 40 19.8 41.8 18 44 18 L 56 18 C 58.2 18 60 19.8 60 22 L 60 40 L 78 40 C 80.2 40 82 41.8 82 44 L 82 56 C 82 58.2 80.2 60 78 60 L 60 60 L 60 78 C 60 80.2 58.2 82 56 82 L 44 82 C 41.8 82 40 80.2 40 78 L 40 60 L 22 60 C 19.8 60 18 58.2 18 56 L 18 44 C 18 41.8 19.8 40 22 40 L 40 40 Z" fill="#ffffff" />
  <!-- Trazo de pulso / electrocardiograma central -->
  <path d="M 28 50 L 37 50 L 42 38 L 48 62 L 53 44 L 58 53 L 63 50 L 72 50" fill="none" stroke="#0284c7" stroke-width="4.5" stroke-linecap="round" stroke-linejoin="round" />
</svg>
